PathFileType	4	(X/Y/Z)	C:/Users/opensim2020/Desktop/walking_exp_matlab/subject01_walking15_straight_02.trc																																																																																																																															
DataRate	CameraRate	NumFrames	NumMarkers	Units	OrigDataRate	OrigDataStartFrame	OrigNumFrames																																																																																																																											
100	100	4	43	mm	100	1212	135																																																																																																																											
Frame#	Time	LFHD			RFHD			LBHD			RBHD			C7			T10			CLAV			STRN			RBAK			LSHO			LUPA			LELB			LFRM			LWRA			LWRB			LFIN			RSHO			RUPA			RELB			RFRM			RWRA			RWRB			RFIN			LASI			RASI			LPSI			RPSI			LTHI			LKNE			LTIB			LANK			LHEE			LTOE			RTHI			RKNE			RTIB			RANK			RHEE			RTOE			*39			*40			*41			*42		
		X1	Y1	Z1	X2	Y2	Z2	X3	Y3	Z3	X4	Y4	Z4	X5	Y5	Z5	X6	Y6	Z6	X7	Y7	Z7	X8	Y8	Z8	X9	Y9	Z9	X10	Y10	Z10	X11	Y11	Z11	X12	Y12	Z12	X13	Y13	Z13	X14	Y14	Z14	X15	Y15	Z15	X16	Y16	Z16	X17	Y17	Z17	X18	Y18	Z18	X19	Y19	Z19	X20	Y20	Z20	X21	Y21	Z21	X22	Y22	Z22	X23	Y23	Z23	X24	Y24	Z24	X25	Y25	Z25	X26	Y26	Z26	X27	Y27	Z27	X28	Y28	Z28	X29	Y29	Z29	X30	Y30	Z30	X31	Y31	Z31	X32	Y32	Z32	X33	Y33	Z33	X34	Y34	Z34	X35	Y35	Z35	X36	Y36	Z36	X37	Y37	Z37	X38	Y38	Z38	X39	Y39	Z39	X40	Y40	Z40	X41	Y41	Z41	X42	Y42	Z42	X43	Y43	Z43
																																																																																																																																		
68	0.67	-80.05403	1662.43262	1024.38074	-41.74099	1673.99097	1131.30542	-185.00452	1607.25354	1061.46436	-147.61974	1618.2782	1175.28015	-198.49792	1424.53113	1100.7052	-245.50414	1133.24207	1115.13696	-53.94574	1355.16541	1091.49988	-17.60818	1197.59717	1088.65454	-253.21559	1239.0376	1188.86755	-123.97727	1386.79077	935.073	-191.52965	1209.54749	858.31464	-235.32053	1066.42456	869.09088	-227.78409	953.40527	842.40814	-175.71416	822.1347	848.0354	-234.01956	831.13654	838.68011	-210.62631	753.17621	818.95483	-104.2227	1397.43396	1244.1416	-164.50761	1209.98767	1359.42615	-157.28696	1082.6748	1377.59595	-78.30437	984.33759	1396.82666	42.46659	919.64368	1359.87073	9.97861	898.94171	1402.09119	81.43346	851.48486	1396.59814	-72.22139	931.37061	998.20966	-71.64282	922.28558	1216.05566	-257.17181	936.87323	1048.96582	-254.73396	946.52783	1191.95471	-21.24223	612.96094	922.38916	17.57972	487.07471	940.37372	14.41709	302.12296	922.88782	59.9486	79.83428	964.53156	30.91317	38.04763	1022.60144	205.90839	82.77543	948.76807	-200.42915	603.30524	1268.39539	-236.36752	446.1806	1243.43274	-330.53601	297.26401	1251.22266	-410.58414	105.2327	1208.87891	-470.8721	81.81604	1163.52612	-284.64163	35.71032	1198.42078	-61.98086	1705.01123	1111.66016	-1973.02551	1023.86792	3101.9917	-2012.46655	1022.14081	3140.79248	NaN	NaN	NaN
69	0.68	-66.55193	1660.98853	1022.11694	-28.51795	1672.63171	1129.10754	-171.67558	1605.77136	1059.24365	-134.4404	1616.90222	1173.00098	-185.10951	1422.88074	1098.50134	-231.57054	1131.55579	1113.35913	-40.49963	1353.77014	1089.61731	-3.82437	1196.29602	1087.15527	-239.66791	1237.51904	1187.04688	-110.32036	1384.95251	932.96088	-178.45262	1207.75806	856.69244	-223.48	1065.21802	868.06079	-217.95271	952.20148	841.61993	-168.48985	819.8418	847.19019	-226.74652	829.9834	838.26379	-205.14911	751.36401	818.64587	-91.08357	1396.17627	1241.94897	-150.49838	1208.97266	1357.89087	-143.08058	1081.57385	1376.04858	-62.41476	984.50751	1394.86707	59.41642	922.34912	1357.16394	27.46871	900.62299	1399.07678	100.00085	854.88324	1393.55566	-57.46737	929.84113	997.55225	-58.19815	920.87469	1215.28113	-242.64063	935.5769	1047.073	-240.9753	945.82251	1190.05481	-9.75772	609.74713	919.24078	31.28504	485.66629	939.66608	34.01836	301.09607	921.67114	87.10792	80.50853	963.16449	58.53738	37.32827	1020.96088	233.17416	87.75244	948.73517	-189.54506	602.84717	1268.56018	-226.85751	445.6853	1243.55737	-324.22632	298.56702	1251.50403	-408.31516	108.11411	1209.64001	-469.15802	86.36207	1164.6405	-284.48914	35.9106	1198.65979	-48.68539	1703.74109	1109.39148	-1973.20178	1023.49573	3101.87012	-2012.47717	1022.10608	3140.854	NaN	NaN	NaN
70	0.69	-53.10394	1659.51111	1019.84619	-15.26452	1671.29211	1126.9613	-158.17482	1604.2948	1056.68335	-121.23244	1615.53357	1170.56177	-171.56534	1421.22119	1096.13782	-217.50865	1129.89307	1111.43579	-26.93055	1352.45227	1087.56079	10.15905	1195.04419	1085.47131	-226.09282	1235.99866	1184.9613	-96.51784	1383.07532	930.69879	-165.19522	1205.89697	854.86578	-210.96484	1063.89783	866.83502	-207.41064	950.89136	840.65387	-160.47485	817.6203	846.35681	-218.46468	828.82874	837.4317	-198.54128	749.6264	818.32312	-77.92652	1394.92627	1239.71033	-136.55336	1207.9856	1356.39001	-128.97229	1080.5094	1374.63574	-46.83349	984.52997	1392.79541	75.88019	924.72662	1354.41541	44.38482	902.21167	1396.49609	117.86779	858.03302	1390.48792	-42.57897	928.2901	997.01239	-44.44514	919.48291	1214.52441	-227.92796	934.23956	1044.9718	-227.09926	944.94501	1188.01917	2.26552	607.31866	916.57031	44.99855	484.50183	939.07214	51.95947	299.87393	921.0954	110.97347	80.46926	962.91772	83.18877	36.46027	1020.6087	256.56229	91.07687	948.8822	-177.56624	602.17871	1268.58545	-216.38843	445.02963	1243.45691	-317.26212	300.22876	1252.19678	-405.80389	111.31712	1210.4353	-467.27753	91.43381	1165.37	-284.20657	35.9535	1198.92529	-35.50278	1702.27612	1107.10364	-1972.9989	1023.91211	3102.04199	-2012.56494	1022.20221	3140.73389	NaN	NaN	NaN
71	0.7	-39.56254	1658.1543	1017.51776	-2.02283	1669.98877	1124.60852	-144.93279	1602.78369	1053.48584	-108.06319	1614.16113	1168.02173	-158.07936	1419.77441	1094.03882	-203.44626	1128.26294	1109.49377	-13.25764	1351.00842	1085.44995	24.11239	1193.80396	1083.78979	-212.5127	1234.45447	1182.64587	-82.58888	1381.22876	928.3125	-151.61731	1203.96045	852.85156	-198.23657	1062.43567	865.31982	-196.23723	949.53821	839.45447	-151.5493	815.51154	845.52942	-209.43292	827.74487	836.23224	-190.85458	747.99261	817.85242	-64.67175	1393.64978	1237.47083	-122.7983	1206.89502	1354.54651	-115.11462	1079.36267	1372.80408	-31.55889	984.45367	1390.4043	91.85426	926.755	1351.72754	60.92331	903.55048	1393.5791	135.09476	860.70892	1387.5083	-27.49478	926.70703	996.47461	-30.66985	918.25867	1213.84021	-213.118	933.00171	1042.84692	-213.22142	943.78687	1185.88452	17.34666	606.10608	915.14008	58.98042	483.45984	938.51605	68.57827	298.32324	920.81366	130.66597	79.89544	963.09692	103.98795	35.42518	1020.71576	276.47305	92.95685	949.39807	-164.91478	600.97546	1268.07031	-204.86667	444.07837	1243.45166	-309.6564	301.72186	1252.29321	-402.90271	115.17178	1211.28186	-464.57468	97.01666	1166.28088	-283.78006	35.92551	1199.16504	-22.13643	1701.04041	1104.81396	-1973.13855	1023.70074	3101.85596	-2012.56323	1022.15717	3140.79248	NaN	NaN	NaN
